Coordinates
version=1
nRows=14
nColumns=40
inDegrees=yes

Units are S.I. units (second, meters, Newtons, ...)
Angles are in degrees.

endheader
time	pelvis_tilt	pelvis_list	pelvis_rotation	pelvis_tx	pelvis_ty	pelvis_tz	hip_flexion_r	hip_adduction_r	hip_rotation_r	knee_angle_r	knee_angle_r_beta	ankle_angle_r	subtalar_angle_r	mtp_angle_r	hip_flexion_l	hip_adduction_l	hip_rotation_l	knee_angle_l	knee_angle_l_beta	ankle_angle_l	subtalar_angle_l	mtp_angle_l	lumbar_extension	lumbar_bending	lumbar_rotation	arm_flex_r	arm_add_r	arm_rot_r	elbow_flex_r	pro_sup_r	wrist_flex_r	wrist_dev_r	arm_flex_l	arm_add_l	arm_rot_l	elbow_flex_l	pro_sup_l	wrist_flex_l	wrist_dev_l
     31.91500000	     -2.86214769	     -4.36866534	     -2.93680875	      0.95004669	      0.92259026	      0.49332881	     20.32987552	      2.52568196	    -12.14326187	     23.25372352	     23.25372352	      7.25346437	     -6.72245540	     -4.43427745	      7.85725239	     -9.64351989	     -4.52714613	     42.55753223	     42.55753223	     13.84076463	    -18.14486285	     -2.36888278	     -8.76369118	      6.96164546	      1.71075880	     -4.80548398	    -13.10633250	     -5.12086857	     29.22858115	     46.18638646	      0.00000000	      0.00000000	     10.05865895	    -12.98350917	    -14.63998137	     85.61212234	     47.61748134	      0.00000000	      0.00000000
     31.92828571	     -3.01473983	     -4.43964695	     -2.64269084	      0.94963802	      0.92314274	      0.49513484	     19.84075290	      2.58710623	    -12.77961953	     22.93762856	     22.93762856	      7.77650208	     -5.87767213	     -4.21558710	     10.19343713	     -9.94514102	     -3.63281290	     46.69827228	     46.69827228	     14.50816744	    -18.19787128	      3.32493205	     -8.74086116	      7.11462115	      1.73247828	     -3.45165387	    -13.39805834	     -4.22753186	     30.41595732	     46.08190044	      0.00000000	      0.00000000	      9.61527435	    -12.92150451	    -13.90605070	     85.51559237	     47.62901146	      0.00000000	      0.00000000
     31.94157143	     -3.12838100	     -4.66180974	     -2.36420017	      0.94915955	      0.92367027	      0.49706281	     19.24558627	      2.89776119	    -13.22484870	     22.44831919	     22.44831919	      7.96337689	     -5.49244569	     -4.23407927	     12.28250565	    -10.58319173	     -3.14930937	     50.11420117	     50.11420117	     13.40010438	    -18.53232212	      4.12701053	     -8.76450720	      7.42382221	      1.91882663	     -1.92183477	    -13.60534161	     -4.09093201	     31.09071997	     46.05714750	      0.00000000	      0.00000000	      9.32920934	    -12.55243265	    -13.50633512	     85.16437174	     47.60687676	      0.00000000	      0.00000000
     31.95485714	     -3.18569602	     -4.76429971	     -2.04964596	      0.94854989	      0.92416626	      0.49874383	     18.64185114	      3.01365831	    -13.83606644	     22.06834551	     22.06834551	      8.28777543	     -4.84943107	     -4.45003275	     14.44469117	    -10.88554754	     -2.38399672	     53.50568677	     53.50568677	     14.18095222	    -18.59064768	      9.63198767	     -8.83446261	      7.57091584	      2.09587184	     -0.41190291	    -13.99295766	     -3.14028129	     32.13073761	     45.96230608	      0.00000000	      0.00000000	      9.00953994	    -12.36147173	    -12.73152785	     84.72323861	     47.60399616	      0.00000000	      0.00000000
     31.96814286	     -3.21336044	     -4.97104066	     -1.79451407	      0.94787095	      0.92467550	      0.50057104	     18.01637333	      3.32233667	    -14.19659578	     21.66483211	     21.66483211	      8.46120606	     -4.58251699	     -4.45594022	     16.30319639	    -11.50700083	     -2.05890692	     56.01826980	     56.01826980	     13.28719628	    -18.83346155	      9.94165832	     -8.97494869	      7.81311605	      2.40830824	      1.29746379	    -14.24357356	     -3.10803160	     32.78963344	     45.94722112	      0.00000000	      0.00000000	      8.66188887	    -11.89569491	    -12.34265393	     84.38643396	     47.57553067	      0.00000000	      0.00000000
     31.98142857	     -3.31646969	     -5.12066718	     -1.51763500	      0.94706607	      0.92523312	      0.50224587	     17.38005783	      3.56496820	    -14.71095616	     21.06455887	     21.06455887	      8.61084835	     -4.06544769	     -4.46951274	     18.20019585	    -12.05429244	     -1.79287876	     58.05506541	     58.05506541	     12.99420055	    -18.92905026	     11.27444311	     -9.00593464	      7.99169881	      2.44973678	      3.09245534	    -14.43716185	     -2.89669667	     33.57242824	     45.91613957	      0.00000000	      0.00000000	      8.00810063	    -11.79026211	    -11.83371422	     83.59009550	     47.53433903	      0.00000000	      0.00000000
     31.99471429	     -3.35588542	     -5.22013796	     -1.22072080	      0.94622173	      0.92577275	      0.50367033	     16.74403590	      3.70071466	    -15.24926319	     20.61619153	     20.61619153	      8.82933583	     -3.37932895	     -4.62317751	     20.04563406	    -12.35237335	     -1.28236833	     59.76265814	     59.76265814	     13.92386982	    -18.98129081	     15.11657769	     -9.05349870	      8.11171022	      2.55180487	      4.97070807	    -14.82012926	     -1.93575196	     34.20163005	     45.84663990	      0.00000000	      0.00000000	      7.52424385	    -11.60723524	    -11.10432652	     82.44681091	     47.50148056	      0.00000000	      0.00000000
     32.00800000	     -3.43697301	     -5.30400850	     -0.97568067	      0.94518077	      0.92635895	      0.50508980	     16.15699034	      3.89927462	    -15.51838869	     20.10536830	     20.10536830	      8.96919904	     -3.15816070	     -4.57196871	     21.71052322	    -12.79150824	     -1.13967665	     60.63560708	     60.63560708	     13.75132071	    -19.06841404	     15.30911859	     -9.13622007	      8.18820903	      2.78762984	      6.77580048	    -15.05753663	     -1.88762911	     34.91092421	     45.82939940	      0.00000000	      0.00000000	      6.84255083	    -11.16565647	    -10.70023231	     81.78572597	     47.46378964	      0.00000000	      0.00000000
     32.02128571	     -3.49485673	     -5.35463810	     -0.70597861	      0.94408538	      0.92717054	      0.50635823	     15.45193445	      4.06977830	    -15.85849660	     19.40308446	     19.40308446	      9.05756947	     -2.69760743	     -4.50898914	     23.20995999	    -13.09783773	     -0.95457104	     60.85047144	     60.85047144	     13.86015039	    -19.11857250	     15.88870957	     -9.21645820	      8.24645042	      2.68747295	      8.84721365	    -15.17429309	     -1.69258300	     35.70507414	     45.80202481	      0.00000000	      0.00000000	      6.07508835	    -11.06050436	    -10.27602195	     80.38513966	     47.41601624	      0.00000000	      0.00000000
     32.03457143	     -3.56178402	     -5.24892258	     -0.47443718	      0.94290721	      0.92799692	      0.50741479	     14.82098408	      4.03684018	    -16.23913616	     18.83221587	     18.83221587	      9.17437780	     -2.15209221	     -4.55330183	     24.58248215	    -13.16336153	     -0.86481140	     60.51712625	     60.51712625	     14.37584797	    -19.15115196	     17.22156769	     -9.26013470	      8.13336740	      2.86693130	     10.89382583	    -15.51813626	     -0.86146819	     36.10506192	     45.75512268	      0.00000000	      0.00000000	      5.74663460	    -10.66863832	     -9.80212323	     78.20125647	     47.37457258	      0.00000000	      0.00000000
     32.04785714	     -3.61686633	     -5.16066457	     -0.23149463	      0.94166942	      0.92891087	      0.50835288	     14.13126711	      4.07910060	    -16.40246742	     18.14066039	     18.14066039	      9.27112557	     -1.87816147	     -4.46777621	     25.75324910	    -13.21259761	     -0.81324583	     59.49852246	     59.49852246	     14.52888596	    -19.15621192	     17.38850534	     -9.34528590	      8.03206525	      2.73570095	     12.98671228	    -15.58158915	     -0.77463140	     37.03063219	     45.72947944	      0.00000000	      0.00000000	      4.86988601	    -10.44286339	     -9.39100640	     76.74044422	     47.32413507	      0.00000000	      0.00000000
     32.06114286	     -3.70675046	     -4.99431513	      0.00011270	      0.94033341	      0.92979568	      0.50907836	     13.49940955	      4.00451459	    -16.65172180	     17.47804095	     17.47804095	      9.34128026	     -1.47441503	     -4.53446389	     26.78648744	    -13.08301561	     -0.77559254	     57.91451307	     57.91451307	     14.68904862	    -19.14605511	     17.55907071	     -9.36707990	      7.87621557	      2.88136378	     14.97090652	    -15.81756433	     -0.33391939	     37.74083892	     45.69377177	      0.00000000	      0.00000000	      4.54615226	     -9.97946331	     -9.02322649	     74.03344461	     47.27342448	      0.00000000	      0.00000000
     32.07442857	     -3.79785433	     -4.75735998	      0.22425642	      0.93896381	      0.93066259	      0.50963364	     12.86258001	      3.88295724	    -16.74756533	     16.78746550	     16.78746550	      9.43197211	     -1.30236038	     -4.46546655	     27.63422340	    -12.80803748	     -0.78125483	     55.80044857	     55.80044857	     14.77082181	    -19.12667615	     17.64558758	     -9.45764200	      7.62611718	      2.70326714	     17.01696978	    -15.81216740	     -0.35780331	     38.76835814	     45.66984135	      0.00000000	      0.00000000	      3.65115960	     -9.75139184	     -8.64986461	     72.40123565	     47.21828814	      0.00000000	      0.00000000
     32.08771429	     -3.94194705	     -4.56479572	      0.45520544	      0.93747369	      0.93128191	      0.51005036	     12.35559278	      3.78103624	    -16.83660787	     16.21519980	     16.21519980	      9.48823230	     -1.13298522	     -4.44329898	     28.40649150	    -12.46879978	     -0.66198792	     53.27373110	     53.27373110	     14.89655497	    -19.07507727	     17.67323047	     -9.48736904	      7.35574845	      2.69380900	     19.02439021	    -15.90986481	     -0.39324288	     39.74016678	     45.64833256	      0.00000000	      0.00000000	      2.85839313	     -9.38298099	     -8.32330066	     70.66281221	     47.16296630	      0.00000000	      0.00000000
